<svg width="20" height="16" viewBox="0 0 20 16" fill="none" xmlns="http://www.w3.org/2000/svg">
<path d="M20 1.84584V14.3458C20 15.0542 19.4583 15.5958 18.75 15.5958H17.5V4.25167L10 9.6375L2.5 4.25167V15.5958H1.25C0.540833 15.5958 0 15.0542 0 14.3458V1.84584C0 1.49167 0.135 1.17917 0.359167 0.955836C0.476154 0.839469 0.615231 0.747673 0.768218 0.685849C0.921205 0.624025 1.08501 0.59342 1.25 0.595836H1.66667L10 6.6375L18.3333 0.595836H18.75C19.1042 0.595836 19.4167 0.730836 19.6408 0.955836C19.8658 1.17917 20 1.49167 20 1.84584Z" fill="white"/>
</svg>
