<svg width="23" height="14" viewBox="0 0 23 14" fill="#FFFFFF" xmlns="http://www.w3.org/2000/svg">
<path d="M15.622 0H12.535C12.2475 0 11.9708 0.107813 11.7587 0.301875L8.22609 3.53625C8.2225 3.53984 8.21891 3.54703 8.21531 3.55062C7.61875 4.11125 7.62953 5.00609 8.13984 5.56312C8.59625 6.06266 9.55578 6.19562 10.1559 5.66016C10.1595 5.65656 10.1667 5.65656 10.1703 5.65297L13.0417 3.02234C13.2753 2.81031 13.6419 2.82469 13.8539 3.05828C14.0695 3.29187 14.0516 3.65484 13.818 3.87047L12.88 4.72937L18.1125 8.97719C18.2167 9.06344 18.3102 9.15687 18.3964 9.25391V2.3L16.4342 0.337813C16.2222 0.122188 15.9275 0 15.622 0ZM19.55 2.30719V10.3536C19.55 10.9897 20.0639 11.5036 20.7 11.5036H23V2.30719H19.55ZM21.275 10.3536C20.9587 10.3536 20.7 10.0948 20.7 9.77859C20.7 9.46234 20.9587 9.20359 21.275 9.20359C21.5912 9.20359 21.85 9.46234 21.85 9.77859C21.85 10.0948 21.5912 10.3536 21.275 10.3536ZM0 11.5H2.3C2.93609 11.5 3.45 10.9861 3.45 10.35V2.30719H0V11.5ZM1.725 9.20359C2.04125 9.20359 2.3 9.46234 2.3 9.77859C2.3 10.0948 2.04125 10.3536 1.725 10.3536C1.40875 10.3536 1.15 10.0948 1.15 9.77859C1.15 9.45875 1.40875 9.20359 1.725 9.20359ZM17.3902 9.87203L12.0247 5.51641L10.9466 6.50469C9.87922 7.47859 8.24406 7.38516 7.29172 6.34656C6.325 5.29 6.40047 3.65484 7.44984 2.69172L10.3895 0H7.37797C7.0725 0 6.78141 0.122188 6.56578 0.337813L4.6 2.3V10.3464H5.25766L8.51 13.2897C9.49469 14.0911 10.943 13.9402 11.7444 12.9555L11.7516 12.9483L12.3948 13.5053C12.9662 13.9725 13.8108 13.8827 14.2744 13.3112L15.4028 11.9241L15.5969 12.0822C16.0892 12.4811 16.8152 12.4092 17.2141 11.9133L17.5555 11.4928C17.958 10.9969 17.8825 10.2745 17.3902 9.87203Z" fill="white"/>
</svg>
