<svg width="20" height="15" viewBox="0 0 20 15" fill="none" xmlns="http://www.w3.org/2000/svg">
<path d="M19.5825 2.20617C19.4665 1.79081 19.2454 1.41239 18.9405 1.10747C18.6356 0.802543 18.2572 0.581437 17.8418 0.465519C16.2829 0.0478635 10.0089 0.0478634 10.0089 0.0478634C10.0089 0.0478634 3.75074 0.0395271 2.17599 0.465519C1.76064 0.581437 1.38221 0.802543 1.07729 1.10747C0.772366 1.41239 0.55126 1.79081 0.435342 2.20617C0.139832 3.80218 -0.00585506 5.42233 0.000180061 7.04546C-0.00471415 8.66247 0.140969 10.2764 0.435342 11.8664C0.55126 12.2818 0.772366 12.6602 1.07729 12.9651C1.38221 13.27 1.76064 13.4911 2.17599 13.6071C3.73323 14.0256 10.0089 14.0256 10.0089 14.0256C10.0089 14.0256 16.2662 14.0256 17.8418 13.6071C18.2572 13.4911 18.6356 13.27 18.9405 12.9651C19.2454 12.6602 19.4665 12.2818 19.5825 11.8664C19.8707 10.2758 20.0102 8.6619 19.9993 7.04546C20.0114 5.4229 19.8718 3.80276 19.5825 2.20617ZM8.00649 10.0391V4.04268L13.2284 7.04546L8.00649 10.0391Z" fill="white"/>
</svg>
