<?xml version="1.0" standalone="no"?>
<!DOCTYPE svg PUBLIC "-//W3C//DTD SVG 1.1//EN" "http://www.w3.org/Graphics/SVG/1.1/DTD/svg11.dtd" >
<svg xmlns="http://www.w3.org/2000/svg" xmlns:xlink="http://www.w3.org/1999/xlink" version="1.1">
<metadata>
Created by FontForge 20230101 at Thu Jun 18 12:51:05 2020
 By alexa
Copyright (c) October 14, 2013 Jamie Wilson (jamiewilson.io), with Reserved Font Name Norwester.
</metadata>
<defs>
<font id="mr_NorwesterG" horiz-adv-x="500" >
  <font-face 
    font-family="mr_NorwesterG"
    font-weight="400"
    font-stretch="condensed"
    units-per-em="1000"
    panose-1="0 0 5 6 0 0 0 0 0 0"
    ascent="800"
    descent="-200"
    x-height="700"
    cap-height="800"
    bbox="0 -154 886.778 980"
    underline-thickness="50"
    underline-position="-100"
    unicode-range="U+0020-2212"
  />
<missing-glyph 
d="M0 700h500v-700h-500v700zM420 650h-340l170 -255zM450 95v510l-170 -255zM420 50l-170 255l-170 -255h340zM50 95l170 255l-170 255v-510z" />
    <glyph glyph-name=".notdef" 
d="M0 700h500v-700h-500v700zM420 650h-340l170 -255zM450 95v510l-170 -255zM420 50l-170 255l-170 -255h340zM50 95l170 255l-170 255v-510z" />
    <glyph glyph-name="A" unicode="A" horiz-adv-x="586" 
d="M426 0q-13 0 -16 14l-28 146h-178l-27 -146q-3 -14 -16 -14h-107q-18 0 -13 17l166 769q3 14 17 14h139q14 0 17 -14l166 -769q3 -17 -14 -17h-106zM293 625l-64 -349h128z" />
    <glyph glyph-name="B" unicode="B" horiz-adv-x="501" 
d="M451 472q0 -27 -18 -47q-18 -19 -45 -24v-2q27 -5 45 -24q18 -20 18 -47v-184q0 -144 -145 -144h-240q-16 0 -16 16v768q0 16 16 16h240q145 0 145 -144v-184zM318 628q0 40 -40 40h-91v-202h91q40 0 40 39v123zM318 294q0 40 -40 40h-91v-202h91q40 0 40 40v122z" />
    <glyph glyph-name="C" unicode="C" horiz-adv-x="501" 
d="M451 548q0 -16 -16 -16h-100q-16 0 -16 16v80q0 40 -40 40h-52q-40 0 -40 -40v-456q0 -40 40 -40h52q40 0 40 40v80q0 16 16 16h100q16 0 16 -16v-108q0 -144 -144 -144h-112q-145 0 -145 144v512q0 144 145 144h112q144 0 144 -144v-108z" />
    <glyph glyph-name="D" unicode="D" 
d="M50 784q0 16 16 16h240q144 0 144 -145v-511q0 -144 -144 -144h-240q-16 0 -16 16v768zM278 132q40 0 40 40v455q0 41 -40 41h-92v-536h92z" />
    <glyph glyph-name="E" unicode="E" horiz-adv-x="499" 
d="M449 684q0 -17 -16 -17h-250v-200h191q16 0 16 -17v-99q0 -17 -16 -17h-191v-202h250q16 0 16 -16v-100q0 -16 -16 -16h-368q-15 0 -15 16v768q0 16 15 16h368q16 0 16 -16v-100z" />
    <glyph glyph-name="F" unicode="F" 
d="M450 684q0 -16 -16 -16h-248v-201h188q16 0 16 -16v-100q0 -16 -16 -16h-188v-319q0 -16 -16 -16h-104q-16 0 -16 16v768q0 16 16 16h368q16 0 16 -16v-100z" />
    <glyph glyph-name="G" unicode="G" horiz-adv-x="520" 
d="M50 656q0 144 144 144h132q144 0 144 -144v-104q0 -16 -16 -16h-100q-16 0 -16 16v76q0 40 -40 40h-72q-40 0 -40 -40v-456q0 -40 40 -40h72q40 0 40 40v134h-52q-16 0 -16 16v100q0 16 16 16h168q16 0 16 -16v-278q0 -144 -144 -144h-132q-144 0 -144 144v512z" />
    <glyph glyph-name="H" unicode="H" 
d="M314 784q0 16 16 16h103q17 0 17 -16v-768q0 -16 -17 -16h-103q-16 0 -16 16v318h-128v-318q0 -16 -16 -16h-103q-17 0 -17 16v768q0 16 17 16h103q16 0 16 -16v-318h128v318z" />
    <glyph glyph-name="I" unicode="I" horiz-adv-x="236" 
d="M170 800q16 0 16 -16v-768q0 -16 -16 -16h-104q-16 0 -16 16v768q0 16 16 16h104z" />
    <glyph glyph-name="J" unicode="J" 
d="M314 784q0 16 16 16h104q16 0 16 -16v-640q0 -144 -144 -144h-112q-144 0 -144 144v104q0 16 16 16h100q16 0 16 -16v-76q0 -40 40 -40h52q40 0 40 40v612z" />
    <glyph glyph-name="K" unicode="K" horiz-adv-x="536" 
d="M372 0q-17 0 -23 15l-126 297l-37 -71v-221q0 -20 -20 -20h-96q-20 0 -20 20v760q0 20 20 20h96q20 0 20 -20v-310l154 315q8 15 23 15h105q26 0 14 -24l-170 -349l181 -404q12 -23 -15 -23h-106z" />
    <glyph glyph-name="L" unicode="L" horiz-adv-x="490" 
d="M186 784q0 16 -16 16h-104q-16 0 -16 -16v-768q0 -16 16 -16h358q16 0 16 16v100q0 16 -16 16h-238v652z" />
    <glyph glyph-name="M" unicode="M" horiz-adv-x="670" 
d="M600 800q20 0 20 -20v-760q0 -20 -20 -20h-93q-20 0 -20 20v450h-7l-99 -452q-4 -18 -22 -18h-49q-17 0 -22 18l-99 452h-7v-450q0 -20 -20 -20h-92q-20 0 -20 20v760q0 20 20 20h132q18 0 22 -18l111 -498l111 498q5 18 22 18h132z" />
    <glyph glyph-name="N" unicode="N" horiz-adv-x="527" 
d="M461 800q16 0 16 -16v-768q0 -16 -16 -16h-99q-14 0 -18 13l-153 427h-5v-424q0 -16 -16 -16h-104q-16 0 -16 16v768q0 16 16 16h99q14 0 18 -13l152 -425h6v422q0 16 16 16h104z" />
    <glyph glyph-name="O" unicode="O" 
d="M50 656q0 144 144 144h112q144 0 144 -144v-512q0 -144 -144 -144h-112q-144 0 -144 144v512zM281 129q40 0 40 40v462q0 40 -40 40h-58q-40 0 -40 -40v-462q0 -40 40 -40h58z" />
    <glyph glyph-name="P" unicode="P" 
d="M50 784q0 16 16 16h240q144 0 144 -144v-244q0 -144 -144 -144h-120v-252q0 -16 -16 -16h-104q-16 0 -16 16v768zM274 400q40 0 40 40v188q0 40 -40 40h-88v-268h88z" />
    <glyph glyph-name="Q" unicode="Q" 
d="M450 144q0 -95 -65 -128l40 -86q4 -8 -1 -13q-4 -5 -13 -5h-104q-10 0 -17 14l-34 74h-62q-144 0 -144 144v512q0 144 144 144h112q144 0 144 -144v-512zM186 172q0 -40 40 -40h52q40 0 40 40v456q0 40 -40 40h-52q-40 0 -40 -40v-456z" />
    <glyph glyph-name="R" unicode="R" horiz-adv-x="511" 
d="M461 412q0 -100 -73 -132l69 -262q5 -18 -14 -18h-104q-14 0 -17 14l-67 254h-69v-252q0 -16 -16 -16h-104q-16 0 -16 16v768q0 16 16 16h251q144 0 144 -144v-244zM285 400q40 0 40 40v188q0 40 -40 40h-99v-268h99z" />
    <glyph glyph-name="S" unicode="S" 
d="M306 800q144 0 144 -144v-106q0 -16 -16 -16h-104q-16 0 -16 16v78q0 40 -40 40h-48q-40 0 -40 -40v-138l238 -78q26 -11 26 -37v-231q0 -144 -144 -144h-112q-144 0 -144 144v105q0 16 16 16h104q16 0 16 -16v-77q0 -40 40 -40h48q40 0 40 40v133l-237 78q-27 9 -27 37
v236q0 144 144 144h112z" />
    <glyph glyph-name="T" unicode="T" horiz-adv-x="460" 
d="M414 800q16 0 16 -16v-100q0 -16 -16 -16h-116v-652q0 -16 -16 -16h-104q-16 0 -16 16v652h-116q-16 0 -16 16v100q0 16 16 16h368z" />
    <glyph glyph-name="U" unicode="U" 
d="M430 800q20 0 20 -20v-636q0 -144 -144 -144h-112q-144 0 -144 144v636q0 20 20 20h96q20 0 20 -20v-608q0 -40 40 -40h52q40 0 40 40v608q0 20 20 20h92z" />
    <glyph glyph-name="V" unicode="V" horiz-adv-x="543" 
d="M494 800q23 0 18 -22l-169 -760q-4 -18 -22 -18h-100q-17 0 -22 18l-168 760q-5 22 18 22h95q18 0 22 -18l105 -536l106 536q5 18 22 18h95z" />
    <glyph glyph-name="W" unicode="W" horiz-adv-x="761" 
d="M693 800q21 0 19 -21l-86 -760q-1 -19 -21 -19h-98q-17 0 -22 18l-104 452l-105 -453q-5 -17 -22 -17h-100q-20 0 -21 19l-82 760q-2 21 19 21h95q19 0 21 -19l39 -468h5l99 469q5 18 22 18h60q18 0 22 -18l98 -469h5l41 468q2 19 21 19h95z" />
    <glyph glyph-name="X" unicode="X" horiz-adv-x="538" 
d="M496 24q10 -24 -15 -24h-103q-17 0 -23 14l-96 242l-96 -242q-6 -14 -23 -14h-103q-25 0 -15 24l158 384l-152 368q-10 24 15 24h100q17 0 23 -14l93 -237l93 237q6 14 23 14h100q25 0 15 -24l-153 -368z" />
    <glyph glyph-name="Y" unicode="Y" horiz-adv-x="546" 
d="M508 800q26 0 16 -23l-183 -445v-312q0 -20 -20 -20h-96q-20 0 -20 20v312l-183 445q-10 23 16 23h100q17 0 23 -16l112 -287l112 287q6 16 23 16h100z" />
    <glyph glyph-name="Z" unicode="Z" horiz-adv-x="507" 
d="M450 800q24 0 15 -24l-249 -644h220q16 0 16 -16v-99q0 -15 -16 -17h-389q-25 0 -15 24l249 643h-207q-16 0 -16 16v100q0 15 16 17h376z" />
    <glyph glyph-name="a" unicode="a" horiz-adv-x="567" 
d="M425 0q-13 0 -16 14l-32 126h-188l-31 -126q-3 -14 -16 -14h-98q-18 0 -13 17l166 669q3 14 17 14h139q14 0 17 -14l166 -669q5 -17 -14 -17h-97zM283 528l-63 -272h126z" />
    <glyph glyph-name="b" unicode="b" horiz-adv-x="501" 
d="M451 421q0 -27 -18 -47q-18 -19 -45 -24v-2q27 -5 45 -24q18 -20 18 -47v-133q0 -144 -145 -144h-240q-16 0 -16 16v668q0 16 16 16h240q145 0 145 -144v-135zM324 534q0 40 -40 40h-110v-159h110q40 0 40 39v80zM324 243q0 40 -40 40h-110v-157h110q40 0 40 40v77z" />
    <glyph glyph-name="c" unicode="c" horiz-adv-x="501" 
d="M451 448q0 -16 -16 -16h-94q-16 0 -16 16v82q0 40 -40 40h-64q-40 0 -40 -40v-363q0 -40 40 -40h64q40 0 40 40v85q0 16 16 16h94q16 0 16 -16v-108q0 -144 -144 -144h-112q-145 0 -145 144v412q0 144 145 144h112q144 0 144 -144v-108z" />
    <glyph glyph-name="d" unicode="d" 
d="M50 684q0 16 16 16h240q144 0 144 -145v-411q0 -144 -144 -144h-240q-16 0 -16 16v668zM278 132q40 0 40 40v355q0 41 -40 41h-92v-436h92z" />
    <glyph glyph-name="e" unicode="e" horiz-adv-x="499" 
d="M449 584q0 -17 -16 -17h-247v-154h188q16 0 16 -17v-99q0 -17 -16 -17h-188v-148h247q16 0 16 -16v-100q0 -16 -16 -16h-368q-15 0 -15 16v668q0 16 15 16h368q16 0 16 -16v-100z" />
    <glyph glyph-name="f" unicode="f" 
d="M450 584q0 -16 -16 -16h-248v-171h188q16 0 16 -16v-100q0 -16 -16 -16h-188v-249q0 -16 -16 -16h-104q-16 0 -16 16v668q0 16 16 16h368q16 0 16 -16v-100z" />
    <glyph glyph-name="g" unicode="g" 
d="M50 556q0 144 144 144h112q144 0 144 -144v-74q0 -16 -16 -16h-94q-16 0 -16 16v49q0 40 -40 40h-64q-40 0 -40 -40v-362q0 -40 40 -40h64q40 0 40 40v87h-52q-16 0 -16 16v100q0 16 16 16h162q16 0 16 -16v-228q0 -144 -144 -144h-112q-144 0 -144 144v412z" />
    <glyph glyph-name="h" unicode="h" 
d="M314 684q0 16 16 16h103q17 0 17 -16v-668q0 -16 -17 -16h-103q-16 0 -16 16v266h-128v-266q0 -16 -16 -16h-103q-17 0 -17 16v668q0 16 17 16h103q16 0 16 -16v-270h128v270z" />
    <glyph glyph-name="i" unicode="i" horiz-adv-x="236" 
d="M170 0q16 0 16 16v668q0 16 -16 16h-104q-16 0 -16 -16v-668q0 -16 16 -16h104z" />
    <glyph glyph-name="j" unicode="j" 
d="M314 684q0 16 16 16h104q16 0 16 -16v-540q0 -144 -144 -144h-112q-144 0 -144 144v104q0 16 16 16h100q16 0 16 -16v-76q0 -40 40 -40h52q40 0 40 40v512z" />
    <glyph glyph-name="k" unicode="k" horiz-adv-x="536" 
d="M372 0q-15 0 -23 15l-126 247l-37 -71v-171q0 -20 -20 -20h-96q-20 0 -20 20v660q0 20 20 20h96q20 0 20 -20v-260l154 265q8 15 23 15h105q11 0 16 -7q4 -7 -2 -17l-170 -299l181 -354q12 -23 -15 -23h-106z" />
    <glyph glyph-name="l" unicode="l" horiz-adv-x="450" 
d="M186 684q0 16 -16 16h-104q-16 0 -16 -16v-668q0 -16 16 -16h318q16 0 16 16v100q0 16 -16 16h-198v552z" />
    <glyph glyph-name="m" unicode="m" horiz-adv-x="670" 
d="M600 700q20 0 20 -20v-660q0 -20 -20 -20h-93q-20 0 -20 20v393h-7l-94 -396q-5 -17 -22 -17h-59q-17 0 -22 17l-94 396h-7v-393q0 -20 -20 -20h-92q-20 0 -20 20v660q0 20 20 20h132q17 0 22 -17l111 -446l111 446q5 17 22 17h132z" />
    <glyph glyph-name="n" unicode="n" horiz-adv-x="527" 
d="M461 700q16 0 16 -16v-668q0 -16 -16 -16h-79q-12 0 -18 13l-188 382v-379q0 -16 -16 -16h-94q-16 0 -16 16v668q0 16 16 16h79q12 0 18 -13l188 -382v379q0 16 16 16h94z" />
    <glyph glyph-name="o" unicode="o" 
d="M50 556q0 144 144 144h112q144 0 144 -144v-412q0 -144 -144 -144h-112q-144 0 -144 144v412zM284 129q40 0 40 40v362q0 40 -40 40h-64q-40 0 -40 -40v-362q0 -40 40 -40h64z" />
    <glyph glyph-name="p" unicode="p" 
d="M50 684q0 16 16 16h240q144 0 144 -144v-196q0 -142 -144 -144l-126 -1v-200q0 -16 -16 -16l-98 1q-16 0 -16 16v668zM280 345q40 0 40 40v146q0 40 -40 40l-100 -1v-226z" />
    <glyph glyph-name="q" unicode="q" 
d="M450 144q0 -95 -65 -128l40 -86q4 -8 -1 -13q-4 -5 -13 -5h-104q-10 0 -17 14l-34 74h-62q-144 0 -144 144v412q0 144 144 144h112q144 0 144 -144v-412zM180 169q0 -40 40 -40h64q40 0 40 40v362q0 40 -40 40h-64q-40 0 -40 -40v-362z" />
    <glyph glyph-name="r" unicode="r" 
d="M450 355q0 -87 -56 -122l52 -215q5 -18 -14 -18h-98q-14 0 -17 14l-48 197h-89v-195q0 -16 -16 -16h-98q-16 0 -16 16v668q0 16 16 16h240q144 0 144 -144v-201zM280 340q40 0 40 40v151q0 40 -40 40h-100v-231h100z" />
    <glyph glyph-name="s" unicode="s" 
d="M306 700q144 0 144 -144v-66q0 -16 -16 -16h-101q-16 0 -16 16v42q0 40 -40 40h-55q-40 0 -40 -40v-85l242 -78q26 -9 26 -37v-188q0 -144 -144 -144h-112q-144 0 -144 144v65q0 16 16 16h101q16 0 16 -16v-42q0 -40 40 -40h54q40 0 40 40v101l-240 78q-27 9 -27 37v173
q0 144 144 144h112z" />
    <glyph glyph-name="t" unicode="t" horiz-adv-x="460" 
d="M46 700q-16 0 -16 -16v-100q0 -16 16 -16h116v-552q0 -16 16 -16h104q16 0 16 16v552h116q16 0 16 16v100q0 16 -16 16h-368z" />
    <glyph glyph-name="u" unicode="u" 
d="M430 700q20 0 20 -20v-536q0 -144 -144 -144h-112q-144 0 -144 144v536q0 20 20 20h96q20 0 20 -20v-508q0 -40 40 -40h52q40 0 40 40v508q0 20 20 20h92z" />
    <glyph glyph-name="v" unicode="v" horiz-adv-x="523" 
d="M474 700q23 0 18 -22l-159 -660q-4 -18 -22 -18h-100q-17 0 -22 18l-158 660q-5 22 18 22h91q18 0 22 -18l99 -452l100 452q5 18 22 18h91z" />
    <glyph glyph-name="w" unicode="w" horiz-adv-x="767" 
d="M709 700q22 0 19 -21l-96 -661q-3 -18 -22 -18h-108q-17 0 -22 18l-92 410l-93 -410q-4 -18 -22 -18h-110q-19 0 -22 19l-92 660q-3 21 19 21h94q18 0 21 -19l49 -418h5l98 420q5 17 22 17h61q17 0 22 -17l98 -420h5l51 418q3 19 21 19h94z" />
    <glyph glyph-name="x" unicode="x" horiz-adv-x="570" 
d="M528 24q12 -24 -15 -24h-103q-16 0 -23 14l-106 217l-106 -217q-7 -14 -23 -14h-103q-27 0 -15 24l169 334l-159 318q-13 24 15 24h103q16 0 23 -14l96 -202l96 202q7 14 23 14h103q28 0 15 -24l-158 -318z" />
    <glyph glyph-name="y" unicode="y" horiz-adv-x="526" 
d="M498 700q27 0 16 -23l-183 -415v-242q0 -20 -20 -20h-96q-20 0 -20 20v242l-183 415q-11 23 16 23h100q17 0 23 -16l112 -257l112 257q6 16 23 16h100z" />
    <glyph glyph-name="z" unicode="z" horiz-adv-x="508" 
d="M462 700q27 0 15 -24l-255 -553h219q16 0 16 -16v-90q0 -15 -16 -17h-392q-27 0 -15 24l255 544h-206q-16 0 -16 16v99q0 15 16 17h379z" />
    <glyph glyph-name="zero" unicode="0" 
d="M50 656q0 144 144 144h112q144 0 144 -144v-512q0 -144 -144 -144h-112q-144 0 -144 144v512zM281 129q40 0 40 40v462q0 40 -40 40h-58q-40 0 -40 -40v-462q0 -40 40 -40h58z" />
    <glyph glyph-name="one" unicode="1" horiz-adv-x="329" 
d="M253 800q16 0 16 -16v-768q0 -16 -16 -16h-104q-16 0 -16 16v632l-62 -8q-21 -3 -21 18v96q0 20 19 21z" />
    <glyph glyph-name="two" unicode="2" 
d="M200 263q-14 -8 -14 -24v-87q0 -20 20 -20h108v41q0 20 20 20h96q20 0 20 -20v-153q0 -20 -20 -20h-360q-20 0 -20 20v295q0 23 26 37l238 128v148q0 40 -40 40h-48q-40 0 -40 -40v-78q0 -16 -16 -16h-104q-16 0 -16 16v106q0 144 144 144h112q144 0 144 -144v-236
q0 -23 -27 -37z" />
    <glyph glyph-name="three" unicode="3" horiz-adv-x="501" 
d="M451 472q0 -27 -18 -47q-18 -19 -45 -24v-2q27 -5 45 -24q18 -20 18 -47v-184q0 -144 -145 -144h-116q-140 0 -140 140v33q0 20 20 20h96q20 0 20 -20v-41h112q20 0 20 20v142q0 40 -40 40h-118q-20 0 -20 20v92q0 20 20 20h118q40 0 40 39v143q0 20 -20 20h-112v-41
q0 -20 -20 -20h-96q-20 0 -20 20v41q0 132 140 132h116q145 0 145 -144v-184z" />
    <glyph glyph-name="four" unicode="4" horiz-adv-x="595" 
d="M525 362q20 0 20 -20v-86q0 -20 -20 -20h-41v-216q0 -20 -20 -20h-87q-20 0 -20 20v218h-287q-20 0 -20 20v89q0 13 7 24l257 416q7 13 24 13h105q28 0 13 -24l-251 -416h152v120q0 20 20 20h87q20 0 20 -20v-118h41z" />
    <glyph glyph-name="five" unicode="5" 
d="M420 800q20 0 20 -20v-92q0 -20 -20 -20h-225v-157l238 -75q17 -6 17 -22v-274q0 -140 -140 -140h-120q-140 0 -140 140v32q0 20 20 20h96q20 0 20 -20v-40h109q20 0 20 20v183l-238 75q-17 6 -17 22v348q0 20 20 20h340z" />
    <glyph glyph-name="six" unicode="6" 
d="M310 491q140 0 140 -140v-211q0 -140 -140 -140h-120q-140 0 -140 140v257q0 24 10 50l142 338q6 15 23 15h104q25 0 15 -23l-121 -286h87zM278 132q40 0 40 40v147q0 40 -40 40h-56q-40 0 -40 -40v-147q0 -40 40 -40h56z" />
    <glyph glyph-name="seven" unicode="7" horiz-adv-x="523" 
d="M476 800q24 0 15 -24l-292 -759q-6 -16 -23 -16l-104 -1q-24 0 -16 23l247 644h-237q-16 0 -16 16v100q0 15 16 17h410z" />
    <glyph glyph-name="eight" unicode="8" horiz-adv-x="501" 
d="M451 472q0 -27 -18 -47q-18 -19 -45 -24v-2q27 -5 45 -24q18 -20 18 -47v-184q0 -144 -145 -144h-111q-145 0 -145 144v184q0 27 18 47q18 19 45 24v2q-27 5 -45 24q-18 20 -18 47v184q0 144 145 144h111q145 0 145 -144v-184zM318 628q0 40 -40 40h-55q-40 0 -40 -40
v-123q0 -39 40 -39h55q40 0 40 39v123zM318 294q0 40 -40 40h-55q-40 0 -40 -40v-122q0 -40 40 -40h55q40 0 40 40v122z" />
    <glyph glyph-name="nine" unicode="9" 
d="M190 309q-140 0 -140 140v211q0 140 140 140h120q140 0 140 -140v-257q0 -24 -10 -50l-142 -338q-6 -15 -23 -15h-104q-25 0 -15 23l121 286h-87zM222 668q-40 0 -40 -40v-147q0 -40 40 -40h56q40 0 40 40v147q0 40 -40 40h-56z" />
    <glyph glyph-name="parenleft" unicode="(" horiz-adv-x="306" 
d="M238 800q24 0 16 -23q-78 -200 -78 -416t78 -416q8 -23 -16 -23h-84q-17 0 -23 16q-81 204 -81 423t81 423q6 16 23 16h84z" />
    <glyph glyph-name="parenright" unicode=")" horiz-adv-x="306" 
d="M152 800q17 0 23 -16q81 -204 81 -423t-81 -423q-6 -16 -23 -16h-84q-24 0 -16 23q78 200 78 416t-78 416q-8 23 16 23h84z" />
    <glyph glyph-name="emdash" unicode="&#x2014;" horiz-adv-x="743" 
d="M50 406q0 20 20 20h603q20 0 20 -20v-92q0 -20 -20 -20h-603q-20 0 -20 20v92z" />
    <glyph glyph-name="endash" unicode="&#x2013;" horiz-adv-x="527" 
d="M50 406q0 20 20 20h387q20 0 20 -20v-92q0 -20 -20 -20h-387q-20 0 -20 20v92z" />
    <glyph glyph-name="hyphen" unicode="-" horiz-adv-x="298" 
d="M50 406q0 20 20 20h158q20 0 20 -20v-92q0 -20 -20 -20h-158q-20 0 -20 20v92z" />
    <glyph glyph-name="quotedblleft" unicode="&#x201c;" horiz-adv-x="401" 
d="M181 588q0 -20 -20 -20h-91q-20 0 -20 20v98q0 14 7 25l54 82q4 7 12 7h45q13 0 8 -12l-40 -88h25q20 0 20 -20v-92zM351 588q0 -20 -20 -20h-91q-20 0 -20 20v98q0 14 7 25l54 82q4 7 12 7h45q13 0 8 -12l-40 -88h25q20 0 20 -20v-92z" />
    <glyph glyph-name="quotedblright" unicode="&#x201d;" horiz-adv-x="409" 
d="M50 780q0 20 20 20h91q20 0 20 -20v-98q0 -14 -7 -25l-54 -82q-4 -7 -12 -7h-45q-13 0 -8 12l40 88h-25q-20 0 -20 20v92zM228 780q0 20 20 20h91q20 0 20 -20v-98q0 -14 -7 -25l-54 -82q-4 -7 -12 -7h-45q-13 0 -8 12l40 88h-25q-20 0 -20 20v92z" />
    <glyph glyph-name="quoteleft" unicode="&#x2018;" horiz-adv-x="231" 
d="M181 588q0 -20 -20 -20h-91q-20 0 -20 20v98q0 14 7 25l54 82q4 7 12 7h45q13 0 8 -12l-40 -88h25q20 0 20 -20v-92z" />
    <glyph glyph-name="quoteright" unicode="&#x2019;" horiz-adv-x="231" 
d="M50 780q0 20 20 20h91q20 0 20 -20v-98q0 -14 -7 -25l-54 -82q-4 -7 -12 -7h-45q-13 0 -8 12l40 88h-25q-20 0 -20 20v92z" />
    <glyph glyph-name="backslash" unicode="\" horiz-adv-x="527" 
d="M151 800q17 0 23 -16l321 -840q8 -23 -16 -23h-94q-17 0 -23 16l-320 840q-8 23 16 23h93z" />
    <glyph glyph-name="colon" unicode=":" horiz-adv-x="231" 
d="M50 446q0 20 20 20h91q20 0 20 -20v-92q0 -20 -20 -20h-91q-20 0 -20 20v92zM50 112q0 20 20 20h91q20 0 20 -20v-92q0 -20 -20 -20h-91q-20 0 -20 20v92z" />
    <glyph glyph-name="comma" unicode="," horiz-adv-x="231" 
d="M50 112q0 20 20 20h91q20 0 20 -20v-98q0 -14 -7 -25l-54 -82q-4 -7 -12 -7h-45q-13 0 -8 12l40 88h-25q-20 0 -20 20v92z" />
    <glyph glyph-name="ellipsis" unicode="&#x2026;" horiz-adv-x="631" 
d="M50 112q0 20 20 20h91q20 0 20 -20v-92q0 -20 -20 -20h-91q-20 0 -20 20v92zM250 112q0 20 20 20h91q20 0 20 -20v-92q0 -20 -20 -20h-91q-20 0 -20 20v92zM450 112q0 20 20 20h91q20 0 20 -20v-92q0 -20 -20 -20h-91q-20 0 -20 20v92z" />
    <glyph glyph-name="exclam" unicode="!" horiz-adv-x="236" 
d="M170 800q16 0 16 -16l-7 -545q0 -16 -16 -16h-95q-16 0 -16 16l-7 545q0 16 16 16h109zM50 112q0 20 20 20h91q20 0 20 -20v-92q0 -20 -20 -20h-91q-20 0 -20 20v92z" />
    <glyph glyph-name="numbersign" unicode="#" horiz-adv-x="936" 
d="M868 587q26 0 16 -23l-25 -69q-6 -16 -23 -16h-137l-56 -148h151q26 0 16 -23l-25 -69q-6 -16 -23 -16h-160l-79 -207q-6 -16 -23 -16l-94 -1q-24 0 -16 23l77 201h-136l-79 -207q-6 -16 -23 -16l-94 -1q-24 0 -16 23l77 201h-128q-26 0 -16 23l25 69q6 16 23 16h137
l57 148h-152q-26 0 -16 23l25 69q6 16 23 16h161l75 197q6 16 23 16h93q24 0 16 -23l-72 -190h136l75 197q6 16 23 16h93q24 0 16 -23l-72 -190h127zM428 479l-56 -148h136l57 148h-137z" />
    <glyph glyph-name="period" unicode="." horiz-adv-x="231" 
d="M50 112q0 20 20 20h91q20 0 20 -20v-92q0 -20 -20 -20h-91q-20 0 -20 20v92z" />
    <glyph glyph-name="question" unicode="?" 
d="M306 800q144 0 144 -144v-197q0 -15 -11 -25l-127 -122q-10 -10 -10 -25v-44q0 -20 -20 -20h-94q-20 0 -20 20v88q0 14 10 24l136 135v138q0 40 -40 40h-48q-40 0 -40 -40v-78q0 -16 -16 -16h-104q-16 0 -16 16v106q0 144 144 144h112zM168 112q0 20 20 20h94
q20 0 20 -20v-92q0 -20 -20 -20h-94q-20 0 -20 20v92z" />
    <glyph glyph-name="quotedbl" unicode="&#x22;" horiz-adv-x="409" 
d="M50 780q0 20 20 20h91q20 0 20 -20v-98q0 -14 -7 -25l-54 -82q-4 -7 -12 -7h-45q-13 0 -8 12l40 88h-25q-20 0 -20 20v92zM228 780q0 20 20 20h91q20 0 20 -20v-98q0 -14 -7 -25l-54 -82q-4 -7 -12 -7h-45q-13 0 -8 12l40 88h-25q-20 0 -20 20v92z" />
    <glyph glyph-name="quotesingle" unicode="'" horiz-adv-x="231" 
d="M50 780q0 20 20 20h91q20 0 20 -20v-98q0 -14 -7 -25l-54 -82q-4 -7 -12 -7h-45q-13 0 -8 12l40 88h-25q-20 0 -20 20v92z" />
    <glyph glyph-name="semicolon" unicode=";" horiz-adv-x="231" 
d="M50 447q0 20 20 20h91q20 0 20 -20v-92q0 -20 -20 -20h-91q-20 0 -20 20v92zM50 112q0 20 20 20h91q20 0 20 -20v-98q0 -14 -7 -25l-54 -82q-4 -7 -12 -7h-45q-13 0 -8 12l40 88h-25q-20 0 -20 20v92z" />
    <glyph glyph-name="slash" unicode="/" horiz-adv-x="526" 
d="M469 800q24 0 16 -23l-320 -840q-6 -16 -23 -16h-94q-24 0 -16 23l321 840q6 16 23 16h93z" />
    <glyph glyph-name="underscore" unicode="_" horiz-adv-x="643" 
d="M0 -42q0 20 20 20h603q20 0 20 -20v-92q0 -20 -20 -20h-603q-20 0 -20 20v92z" />
    <glyph glyph-name="nonmarkingreturn" unicode=" " horiz-adv-x="250" 
 />
    <glyph glyph-name="dollar" unicode="$" 
d="M330 534q-16 0 -16 16v78q0 40 -40 40h-48q-40 0 -40 -40v-138l238 -78q26 -11 26 -37v-231q0 -139 -136 -144v-59q0 -16 -16 -16h-97q-16 0 -16 16v59q-135 5 -135 144v105q0 16 16 16h104q16 0 16 -16v-77q0 -40 40 -40h48q40 0 40 40v133l-237 78q-27 9 -27 37v236
q0 139 135 144v59q0 16 16 16h97q16 0 16 -16v-59q136 -5 136 -144v-106q0 -16 -16 -16h-104z" />
    <glyph glyph-name="Euro" unicode="&#x20ac;" horiz-adv-x="579" 
d="M300 668q-40 0 -40 -41v-77h171q21 0 18 -21l-12 -73q-3 -18 -21 -18h-156v-76h131q21 0 18 -21l-12 -73q-3 -18 -21 -18h-116v-78q0 -40 40 -40h208q20 0 20 -20v-82q0 -19 -20 -21l-236 -9q-70 -3 -107 35t-37 109v106h-60q-22 0 -19 21l12 73q3 18 21 18h46v76h-40
q-22 0 -19 21l12 73q3 18 22 18h25v105q0 71 37 109q37 39 107 36l236 -9q20 -2 20 -21v-82q0 -20 -20 -20h-208z" />
    <glyph glyph-name="sterling" unicode="&#xa3;" horiz-adv-x="551" 
d="M385 532q-16 0 -16 16v80q0 40 -40 40h-52q-40 0 -40 -40v-219h194q20 0 20 -20v-92q0 -20 -20 -20h-194v-145h244q20 0 20 -20v-92q0 -20 -20 -20h-411q-20 0 -20 20v75q0 17 16 23l19 8q15 6 15 23v128h-30q-20 0 -20 20v92q0 20 20 20h30v247q0 144 145 144h112
q144 0 144 -144v-108q0 -16 -16 -16h-100z" />
    <glyph glyph-name="divide" unicode="&#xf7;" horiz-adv-x="696" 
d="M283 670q0 20 20 20h91q20 0 20 -20v-92q0 -20 -20 -20h-91q-20 0 -20 20v92zM646 344q0 -20 -20 -20h-556q-20 0 -20 20v94q0 20 20 20h556q20 0 20 -20v-94zM283 206q0 20 20 20h91q20 0 20 -20v-92q0 -20 -20 -20h-91q-20 0 -20 20v92z" />
    <glyph glyph-name="equal" unicode="=" horiz-adv-x="697" 
d="M646 445q0 -20 -20 -20h-556q-20 0 -20 20v94q0 20 20 20h556q20 0 20 -20v-94zM647 228q0 -20 -20 -20h-556q-20 0 -20 20v94q0 20 20 20h556q20 0 20 -20v-94z" />
    <glyph glyph-name="minus" unicode="&#x2212;" horiz-adv-x="696" 
d="M646 344q0 -20 -20 -20h-556q-20 0 -20 20v94q0 20 20 20h556q20 0 20 -20v-94z" />
    <glyph glyph-name="multiply" unicode="&#xd7;" horiz-adv-x="602" 
d="M545 568q14 -14 0 -28l-149 -149l149 -149q14 -14 0 -28l-67 -67q-14 -14 -28 0l-149 149l-149 -149q-14 -14 -28 0l-67 67q-14 14 0 28l149 149l-149 149q-14 14 0 28l67 67q14 14 28 0l149 -149l149 149q14 14 28 0z" />
    <glyph glyph-name="percent" unicode="%" horiz-adv-x="869" 
d="M349 691q46 -47 46 -113q0 -64 -46 -110q-45 -46 -110 -46q-67 0 -113 46q-46 45 -46 110q0 66 46 113q47 47 113 47q64 0 110 -47zM722 734q12 0 17 -6q5 -7 -1 -17l-460 -695q-10 -16 -23 -16h-94q-12 0 -17 6q-5 7 1 17l461 695q10 16 23 16h93zM199 618
q-16 -17 -16 -40q0 -22 16 -38q17 -16 40 -16q21 0 38 16q16 16 16 38q0 23 -16 40q-17 16 -38 16q-23 0 -40 -16zM743 254q46 -47 46 -113q0 -64 -46 -110q-45 -46 -110 -46q-67 0 -113 46q-46 45 -46 110q0 66 46 113q47 47 113 47q64 0 110 -47zM593 181q-16 -17 -16 -40
q0 -22 16 -38q17 -16 40 -16q21 0 38 16q16 16 16 38q0 23 -16 40q-17 16 -38 16q-23 0 -40 -16z" />
    <glyph glyph-name="plus" unicode="+" horiz-adv-x="696" 
d="M646 344q0 -20 -20 -20h-211v-211q0 -20 -20 -20h-94q-20 0 -20 20v211h-211q-20 0 -20 20v94q0 20 20 20h211v211q0 20 20 20h94q20 0 20 -20v-211h211q20 0 20 -20v-94z" />
    <glyph glyph-name="ampersand" unicode="&#x26;" horiz-adv-x="563" 
d="M376 800q20 0 20 -20v-92q0 -20 -20 -20h-153q-40 0 -40 -40v-113q0 -39 40 -39h93v40q0 20 20 20h95q20 0 20 -20v-40h42q20 0 20 -20v-92q0 -20 -20 -20h-42v-324q0 -20 -20 -20h-236q-145 0 -145 144v194q0 27 18 47q18 19 45 24v2q-27 5 -45 24q-18 20 -18 47v174
q0 144 145 144h181zM223 344q-40 0 -40 -40v-132q0 -40 40 -40h93v212h-93z" />
    <glyph glyph-name="at" unicode="@" horiz-adv-x="740" 
d="M546 760q144 0 144 -144v-451q0 -16 -16 -16h-100q-16 0 -16 16v15l-181 -30q-70 -3 -107 35t-37 109v136q0 73 37 112q38 41 107 33l181 -29v42q0 40 -40 40h-296q-40 0 -40 -41v-455q0 -40 40 -40h208q20 0 20 -20v-82q0 -19 -20 -21l-236 -9q-70 -3 -107 35t-37 109
v511q0 145 144 145h352zM355 322q0 -40 40 -40l163 22v117l-163 22q-40 0 -40 -41v-80z" />
    <glyph glyph-name="degree" unicode="&#xb0;" horiz-adv-x="319" 
d="M251 768q38 -39 38 -93q0 -53 -38 -91t-91 -38q-54 0 -92 38t-38 91q0 54 38 93q38 38 92 38q53 0 91 -38zM128 707q-14 -13 -14 -32q0 -18 14 -31q13 -14 32 -14q18 0 32 14q13 13 13 31q0 19 -13 32q-14 14 -32 14q-19 0 -32 -14z" />
    <glyph glyph-name="uni0401" unicode="&#x401;" horiz-adv-x="499" 
d="M449 684q0 -17 -16 -17h-250v-200h191q16 0 16 -17v-99q0 -17 -16 -17h-191v-202h250q16 0 16 -16v-100q0 -16 -16 -16h-368q-15 0 -15 16v768q0 16 15 16h368q16 0 16 -16v-100zM82 867q0 -20 20 -20h91q20 0 20 20v92q0 20 -20 20h-91q-20 0 -20 -20v-92zM282 867
q0 -20 20 -20h91q20 0 20 20v92q0 20 -20 20h-91q-20 0 -20 -20v-92z" />
    <glyph glyph-name="uni0410" unicode="&#x410;" horiz-adv-x="586" 
d="M426 0q-13 0 -16 14l-28 146h-178l-27 -146q-3 -14 -16 -14h-107q-18 0 -13 17l166 769q3 14 17 14h139q14 0 17 -14l166 -769q3 -17 -14 -17h-106zM293 625l-64 -349h128z" />
    <glyph glyph-name="uni0411" unicode="&#x411;" horiz-adv-x="501" 
d="M274 334q40 0 40 -40v-122q0 -40 -40 -40h-88v202h88zM186 668h208q16 0 16 16v100q0 16 -16 16h-328q-16 0 -16 -16v-768q0 -16 16 -16h240q144 0 144 144v178q0 144 -144 144h-120v202z" />
    <glyph glyph-name="uni0412" unicode="&#x412;" horiz-adv-x="501" 
d="M451 472q0 -27 -18 -47q-18 -19 -45 -24v-2q27 -5 45 -24q18 -20 18 -47v-184q0 -144 -145 -144h-240q-16 0 -16 16v768q0 16 16 16h240q145 0 145 -144v-184zM318 628q0 40 -40 40h-91v-202h91q40 0 40 39v123zM318 294q0 40 -40 40h-91v-202h91q40 0 40 40v122z" />
    <glyph glyph-name="uni0413" unicode="&#x413;" horiz-adv-x="480" 
d="M450 684q0 -16 -16 -16h-248v-652q0 -16 -16 -16h-104q-16 0 -16 16v768q0 16 16 16h368q16 0 16 -16v-100z" />
    <glyph glyph-name="uni0414" unicode="&#x414;" horiz-adv-x="661" 
d="M103 132l141 654q3 14 17 14h139q14 0 17 -14l141 -654h59q17 0 17 -16v-200q0 -16 -17 -16h-103q-16 0 -16 16v84h-335v-84q0 -16 -16 -16h-103q-17 0 -17 16v200q0 16 17 16h59zM424 132l-5 28l-25 116l-64 349l-64 -349l-25 -116l-5 -28h188z" />
    <glyph glyph-name="uni0415" unicode="&#x415;" horiz-adv-x="499" 
d="M449 684q0 -17 -16 -17h-250v-200h191q16 0 16 -17v-99q0 -17 -16 -17h-191v-202h250q16 0 16 -16v-100q0 -16 -16 -16h-368q-15 0 -15 16v768q0 16 15 16h368q16 0 16 -16v-100z" />
    <glyph glyph-name="uni0416" unicode="&#x416;" horiz-adv-x="836" 
d="M486 470l154 315q8 15 23 15h105q26 0 14 -24l-170 -349l181 -404q12 -23 -15 -23h-106q-17 0 -23 15l-126 297l-37 -71v-221q0 -20 -20 -20h-96q-20 0 -20 20v221l-37 71l-126 -297q-6 -15 -23 -15h-106q-27 0 -15 23l181 404l-170 349q-12 24 14 24h105q15 0 23 -15
l154 -315v310q0 20 20 20h96q20 0 20 -20v-310z" />
    <glyph glyph-name="uni0417" unicode="&#x417;" horiz-adv-x="501" 
d="M194 0q-144 0 -144 144v46q0 16 16 16h104q16 0 16 -16v-18q0 -40 40 -40h72q20 0 20 20v142q0 40 -40 40h-118q-20 0 -20 20v92q0 20 20 20h118q40 0 40 39v143q0 20 -20 20h-72q-40 0 -40 -40v-18q0 -16 -16 -16h-104q-16 0 -16 16v46q0 144 144 144h112
q145 0 145 -144v-184q0 -27 -18 -47q-18 -19 -45 -24v-2q27 -5 45 -24q18 -20 18 -47v-184q0 -144 -145 -144h-112z" />
    <glyph glyph-name="uni0418" unicode="&#x418;" horiz-adv-x="527" 
d="M170 800q16 0 16 -16v-422h6l152 425q4 13 18 13h99q16 0 16 -16v-768q0 -16 -16 -16h-104q-16 0 -16 16v424h-5l-153 -427q-4 -13 -18 -13h-99q-16 0 -16 16v768q0 16 16 16h104z" />
    <glyph glyph-name="uni0419" unicode="&#x419;" horiz-adv-x="527" 
d="M170 800q16 0 16 -16v-422h6l152 425q4 13 18 13h99q16 0 16 -16v-768q0 -16 -16 -16h-104q-16 0 -16 16v424h-5l-153 -427q-4 -13 -18 -13h-99q-16 0 -16 16v768q0 16 16 16h104zM153 867q0 -19 11 -19h200q11 0 11 19v94q0 19 -11 19h-200q-11 0 -11 -19v-94z" />
    <glyph glyph-name="uni041A" unicode="&#x41a;" horiz-adv-x="536" 
d="M372 0q-17 0 -23 15l-126 297l-37 -71v-221q0 -20 -20 -20h-96q-20 0 -20 20v760q0 20 20 20h96q20 0 20 -20v-310l154 315q8 15 23 15h105q26 0 14 -24l-170 -349l181 -404q12 -23 -15 -23h-106z" />
    <glyph glyph-name="uni041B" unicode="&#x41b;" horiz-adv-x="543" 
d="M399 0q-17 0 -22 18l-106 536l-105 -536q-4 -18 -22 -18h-95q-23 0 -18 22l168 760q5 18 22 18h100q18 0 22 -18l169 -760q5 -22 -18 -22h-95z" />
    <glyph glyph-name="uni041C" unicode="&#x41c;" horiz-adv-x="670" 
d="M600 800q20 0 20 -20v-760q0 -20 -20 -20h-93q-20 0 -20 20v450h-7l-99 -452q-4 -18 -22 -18h-49q-17 0 -22 18l-99 452h-7v-450q0 -20 -20 -20h-92q-20 0 -20 20v760q0 20 20 20h132q18 0 22 -18l111 -498l111 498q5 18 22 18h132z" />
    <glyph glyph-name="uni041D" unicode="&#x41d;" 
d="M314 784q0 16 16 16h103q17 0 17 -16v-768q0 -16 -17 -16h-103q-16 0 -16 16v318h-128v-318q0 -16 -16 -16h-103q-17 0 -17 16v768q0 16 17 16h103q16 0 16 -16v-318h128v318z" />
    <glyph glyph-name="uni041E" unicode="&#x41e;" 
d="M50 656q0 144 144 144h112q144 0 144 -144v-512q0 -144 -144 -144h-112q-144 0 -144 144v512zM281 129q40 0 40 40v462q0 40 -40 40h-58q-40 0 -40 -40v-462q0 -40 40 -40h58z" />
    <glyph glyph-name="uni041F" unicode="&#x41f;" 
d="M433 800q17 0 17 -16v-768q0 -16 -17 -16h-103q-16 0 -16 16v652h-128v-652q0 -16 -16 -16h-103q-17 0 -17 16v768q0 16 17 16h366z" />
    <glyph glyph-name="uni0420" unicode="&#x420;" 
d="M50 784q0 16 16 16h240q144 0 144 -144v-244q0 -144 -144 -144h-120v-252q0 -16 -16 -16h-104q-16 0 -16 16v768zM274 400q40 0 40 40v188q0 40 -40 40h-88v-268h88z" />
    <glyph glyph-name="uni0421" unicode="&#x421;" horiz-adv-x="501" 
d="M451 548q0 -16 -16 -16h-100q-16 0 -16 16v80q0 40 -40 40h-52q-40 0 -40 -40v-456q0 -40 40 -40h52q40 0 40 40v80q0 16 16 16h100q16 0 16 -16v-108q0 -144 -144 -144h-112q-145 0 -145 144v512q0 144 145 144h112q144 0 144 -144v-108z" />
    <glyph glyph-name="uni0422" unicode="&#x422;" horiz-adv-x="460" 
d="M414 800q16 0 16 -16v-100q0 -16 -16 -16h-116v-652q0 -16 -16 -16h-104q-16 0 -16 16v652h-116q-16 0 -16 16v100q0 16 16 16h368z" />
    <glyph glyph-name="uni0423" unicode="&#x423;" horiz-adv-x="546" 
d="M508 800q26 0 16 -23l-311 -757q-6 -20 -22 -20h-96q-20 0 -20 20l130 312l-183 445q-10 23 16 23h100q17 0 23 -16l112 -287l112 287q6 16 23 16h100z" />
    <glyph glyph-name="uni0424" unicode="&#x424;" horiz-adv-x="764" 
d="M538 232q40 0 40 40v256q0 40 -40 40h-88v-336h88zM226 568q-40 0 -40 -40v-256q0 -40 40 -40h88v336h-88zM450 700h120q144 0 144 -144v-312q0 -144 -144 -144h-120v-84q0 -16 -16 -16h-104q-16 0 -16 16v84h-120q-144 0 -144 144v312q0 144 144 144h120v84q0 16 16 16
h104q16 0 16 -16v-84z" />
    <glyph glyph-name="uni0425" unicode="&#x425;" horiz-adv-x="538" 
d="M496 24q10 -24 -15 -24h-103q-17 0 -23 14l-96 242l-96 -242q-6 -14 -23 -14h-103q-25 0 -15 24l158 384l-152 368q-10 24 15 24h100q17 0 23 -14l93 -237l93 237q6 14 23 14h100q25 0 15 -24l-153 -368z" />
    <glyph glyph-name="uni0426" unicode="&#x426;" horiz-adv-x="535" 
d="M67 0q-17 0 -17 16v768q0 16 17 16h103q16 0 16 -16v-652h128v652q0 16 16 16h103q17 0 17 -16v-652h43q17 0 17 -16v-200q0 -16 -17 -16h-103q-16 0 -16 16v84h-307z" />
    <glyph glyph-name="uni0427" unicode="&#x427;" horiz-adv-x="504" 
d="M318 784q0 16 16 16h104q16 0 16 -16v-768q0 -16 -16 -16h-104q-16 0 -16 16v318h-124q-144 0 -144 144v302q0 20 20 20h96q20 0 20 -20v-274q0 -40 40 -40h92v318z" />
    <glyph glyph-name="uni0428" unicode="&#x428;" horiz-adv-x="764" 
d="M67 0q-17 0 -17 16v768q0 16 17 16h103q16 0 16 -16v-652h128v652q0 16 16 16h103q17 0 17 -16v-652h128v652q0 16 16 16h103q17 0 17 -16v-768q0 -16 -17 -16h-630z" />
    <glyph glyph-name="uni0429" unicode="&#x429;" horiz-adv-x="799" 
d="M67 0q-17 0 -17 16v768q0 16 17 16h103q16 0 16 -16v-652h128v652q0 16 16 16h103q17 0 17 -16v-652h128v652q0 16 16 16h103q17 0 17 -16v-652h43q17 0 17 -16v-200q0 -16 -17 -16h-103q-16 0 -16 16v84h-571z" />
    <glyph glyph-name="uni042A" unicode="&#x42a;" horiz-adv-x="607" 
d="M381 334q40 0 40 -40v-122q0 -40 -40 -40h-88v202h88zM41 800q-16 0 -16 -16v-100q0 -16 16 -16h116v-652q0 -16 16 -16h240q144 0 144 144v178q0 144 -144 144h-120v318q0 16 -16 16h-236z" />
    <glyph glyph-name="uni042B" unicode="&#x42b;" horiz-adv-x="766" 
d="M274 334q40 0 40 -40v-122q0 -40 -40 -40h-88v202h88zM186 784q0 16 -16 16h-104q-16 0 -16 -16v-768q0 -16 16 -16h240q144 0 144 144v178q0 144 -144 144h-120v318zM596 800q-16 0 -16 -16v-768q0 -16 16 -16h104q16 0 16 16v768q0 16 -16 16h-104z" />
    <glyph glyph-name="uni042C" unicode="&#x42c;" horiz-adv-x="501" 
d="M274 334q40 0 40 -40v-122q0 -40 -40 -40h-88v202h88zM186 784q0 16 -16 16h-104q-16 0 -16 -16v-768q0 -16 16 -16h240q144 0 144 144v178q0 144 -144 144h-120v318z" />
    <glyph glyph-name="uni042D" unicode="&#x42d;" horiz-adv-x="501" 
d="M314 628q0 40 -40 40h-52q-40 0 -40 -40v-80q0 -16 -16 -16h-100q-16 0 -16 16v108q0 144 144 144h112q145 0 145 -144v-512q0 -144 -145 -144h-112q-144 0 -144 144v108q0 16 16 16h100q16 0 16 -16v-80q0 -40 40 -40h52q40 0 40 40v162h-100q-16 0 -16 17v99
q0 17 16 17h100v161z" />
    <glyph glyph-name="uni042E" unicode="&#x42e;" horiz-adv-x="765" 
d="M488 129q-40 0 -40 40v462q0 40 40 40h58q40 0 40 -40v-462q0 -40 -40 -40h-58zM315 144q0 -144 144 -144h112q144 0 144 144v512q0 144 -144 144h-112q-144 0 -144 -144v-190h-129v318q0 16 -16 16h-103q-17 0 -17 -16v-768q0 -16 17 -16h103q16 0 16 16v318h129v-190z
" />
    <glyph glyph-name="uni042F" unicode="&#x42f;" horiz-adv-x="511" 
d="M50 656q0 144 144 144h251q16 0 16 -16v-768q0 -16 -16 -16h-104q-16 0 -16 16v252h-69l-67 -254q-3 -14 -17 -14h-104q-18 0 -14 18l69 262q-73 32 -73 132v244zM325 400v268h-99q-40 0 -40 -40v-188q0 -40 40 -40h99z" />
    <glyph glyph-name="uni0430" unicode="&#x430;" horiz-adv-x="567" 
d="M425 0q-13 0 -16 14l-32 126h-188l-31 -126q-3 -14 -16 -14h-98q-18 0 -13 17l166 669q3 14 17 14h139q14 0 17 -14l166 -669q5 -17 -14 -17h-97zM283 528l-63 -272h126z" />
    <glyph glyph-name="uni0431" unicode="&#x431;" 
d="M180 283v-155h100q40 0 40 40v75q0 40 -40 40h-100zM186 412h120q144 -2 144 -144v-125q0 -144 -144 -144h-240q-16 0 -16 16v669q0 16 16 16h318q16 0 16 -16v-100q0 -16 -16 -16h-198v-156z" />
    <glyph glyph-name="uni0432" unicode="&#x432;" horiz-adv-x="501" 
d="M451 421q0 -27 -18 -47q-18 -19 -45 -24v-2q27 -5 45 -24q18 -20 18 -47v-133q0 -144 -145 -144h-240q-16 0 -16 16v668q0 16 16 16h240q145 0 145 -144v-135zM324 534q0 40 -40 40h-110v-159h110q40 0 40 39v80zM324 243q0 40 -40 40h-110v-157h110q40 0 40 40v77z" />
    <glyph glyph-name="uni0433" unicode="&#x433;" 
d="M450 584q0 -16 -16 -16h-248v-552q0 -16 -16 -16h-104q-16 0 -16 16v668q0 16 16 16h368q16 0 16 -16v-100z" />
    <glyph glyph-name="uni0434" unicode="&#x434;" horiz-adv-x="617" 
d="M85 132l137 554q3 14 17 14h139q14 0 17 -14l137 -554h43q17 0 17 -16v-200q0 -16 -17 -16h-103q-16 0 -16 16v84h-295v-84q0 -16 -16 -16h-103q-17 0 -17 16v200q0 16 17 16h43zM404 132l-2 8l-31 116l-63 272l-63 -272l-31 -116l-2 -8h192z" />
    <glyph glyph-name="uni0435" unicode="&#x435;" horiz-adv-x="499" 
d="M449 584q0 -17 -16 -17h-247v-152h188q16 0 16 -17v-99q0 -17 -16 -17h-188v-150h247q16 0 16 -16v-100q0 -16 -16 -16h-368q-15 0 -15 16v668q0 16 15 16h368q16 0 16 -16v-100z" />
    <glyph glyph-name="uni0436" unicode="&#x436;" horiz-adv-x="826" 
d="M481 420l154 265q8 15 23 15h105q11 0 16 -7q4 -7 -2 -17l-170 -299l181 -354q12 -23 -15 -23h-106q-15 0 -23 15l-126 247l-37 -71v-171q0 -20 -20 -20h-96q-20 0 -20 20v171l-37 71l-126 -247q-8 -15 -23 -15h-106q-27 0 -15 23l181 354l-170 299q-6 10 -2 17q5 7 16 7
h105q15 0 23 -15l154 -265v260q0 20 20 20h96q20 0 20 -20v-260z" />
    <glyph glyph-name="uni0437" unicode="&#x437;" horiz-adv-x="501" 
d="M188 0q-138 3 -138 144v57q0 16 16 16h94q16 0 16 -16v-35q0 -40 40 -40h68q40 0 40 40v77q0 40 -40 40h-119q-16 0 -16 16v100q0 16 16 16h119q40 0 40 39v80q0 40 -40 40h-68q-40 0 -40 -40v-32q0 -16 -16 -16h-94q-16 0 -16 16v54q0 141 138 144h118q145 0 145 -144
v-135q0 -27 -18 -47q-18 -19 -45 -24v-2q27 -5 45 -24q18 -20 18 -47v-133q0 -144 -145 -144h-118z" />
    <glyph glyph-name="uni0438" unicode="&#x438;" horiz-adv-x="527" 
d="M160 700q16 0 16 -16v-379l188 382q6 13 18 13h79q16 0 16 -16v-668q0 -16 -16 -16h-94q-16 0 -16 16v379l-188 -382q-6 -13 -18 -13h-79q-16 0 -16 16v668q0 16 16 16h94z" />
    <glyph glyph-name="uni0439" unicode="&#x439;" horiz-adv-x="527" 
d="M160 700q16 0 16 -16v-379l188 382q6 13 18 13h79q16 0 16 -16v-668q0 -16 -16 -16h-94q-16 0 -16 16v379l-188 -382q-6 -13 -18 -13h-79q-16 0 -16 16v668q0 16 16 16h94zM358 888q16 0 16 -16v-100q0 -16 -16 -16h-178q-16 0 -16 16v100q0 16 16 16h178z" />
    <glyph glyph-name="uni043A" unicode="&#x43a;" horiz-adv-x="536" 
d="M372 0q-15 0 -23 15l-126 247l-37 -71v-171q0 -20 -20 -20h-96q-20 0 -20 20v660q0 20 20 20h96q20 0 20 -20v-260l154 265q8 15 23 15h105q11 0 16 -7q4 -7 -2 -17l-170 -299l181 -354q12 -23 -15 -23h-106z" />
    <glyph glyph-name="uni043B" unicode="&#x43b;" horiz-adv-x="523" 
d="M383 0q-17 0 -22 18l-100 452l-99 -452q-4 -18 -22 -18h-91q-23 0 -18 22l158 660q5 18 22 18h100q18 0 22 -18l159 -660q5 -22 -18 -22h-91z" />
    <glyph glyph-name="uni043C" unicode="&#x43c;" horiz-adv-x="670" 
d="M600 700q20 0 20 -20v-660q0 -20 -20 -20h-93q-20 0 -20 20v393h-7l-94 -396q-5 -17 -22 -17h-59q-17 0 -22 17l-94 396h-7v-393q0 -20 -20 -20h-92q-20 0 -20 20v660q0 20 20 20h132q17 0 22 -17l111 -446l111 446q5 17 22 17h132z" />
    <glyph glyph-name="uni043D" unicode="&#x43d;" 
d="M314 684q0 16 16 16h103q17 0 17 -16v-668q0 -16 -17 -16h-103q-16 0 -16 16v266h-128v-266q0 -16 -16 -16h-103q-17 0 -17 16v668q0 16 17 16h103q16 0 16 -16v-270h128v270z" />
    <glyph glyph-name="uni043E" unicode="&#x43e;" 
d="M50 556q0 144 144 144h112q144 0 144 -144v-412q0 -144 -144 -144h-112q-144 0 -144 144v412zM284 129q40 0 40 40v362q0 40 -40 40h-64q-40 0 -40 -40v-362q0 -40 40 -40h64z" />
    <glyph glyph-name="uni043F" unicode="&#x43f;" 
d="M433 700q17 0 17 -16v-668q0 -16 -17 -16h-103q-16 0 -16 16v552h-128v-552q0 -16 -16 -16h-103q-17 0 -17 16v668q0 16 17 16h366z" />
    <glyph glyph-name="uni0440" unicode="&#x440;" 
d="M50 684q0 16 16 16h240q144 0 144 -144v-196q0 -142 -144 -144l-126 -1v-200q0 -16 -16 -16l-98 1q-16 0 -16 16v668zM280 345q40 0 40 40v146q0 40 -40 40l-100 -1v-226z" />
    <glyph glyph-name="uni0441" unicode="&#x441;" horiz-adv-x="501" 
d="M451 448q0 -16 -16 -16h-94q-16 0 -16 16v82q0 40 -40 40h-64q-40 0 -40 -40v-363q0 -40 40 -40h64q40 0 40 40v85q0 16 16 16h94q16 0 16 -16v-108q0 -144 -144 -144h-112q-145 0 -145 144v412q0 144 145 144h112q144 0 144 -144v-108z" />
    <glyph glyph-name="uni0442" unicode="&#x442;" horiz-adv-x="460" 
d="M46 700q-16 0 -16 -16v-100q0 -16 16 -16h116v-552q0 -16 16 -16h104q16 0 16 16v552h116q16 0 16 16v100q0 16 -16 16h-368z" />
    <glyph glyph-name="uni0443" unicode="&#x443;" horiz-adv-x="526" 
d="M498 700q27 0 16 -23l-283 -657q0 -20 -20 -20h-96q-20 0 -20 20l100 242l-183 415q-11 23 16 23h100q17 0 23 -16l112 -257l112 257q6 16 23 16h100z" />
    <glyph glyph-name="uni0444" unicode="&#x444;" horiz-adv-x="770" 
d="M550 229q40 0 40 40v162q0 40 -40 40h-100v-242h100zM320 228v242h-100q-40 0 -40 -40v-162q0 -40 40 -40h100zM450 600h126q144 0 144 -144v-212q0 -142 -144 -144h-126v-85q0 -16 -16 -16l-98 1q-16 0 -16 16v83h-126q-144 0 -144 144v212q0 142 144 144h126v85
q0 16 16 16h98q16 0 16 -16v-84z" />
    <glyph glyph-name="uni0445" unicode="&#x445;" horiz-adv-x="570" 
d="M528 24q12 -24 -15 -24h-103q-16 0 -23 14l-106 217l-106 -217q-7 -14 -23 -14h-103q-27 0 -15 24l169 334l-159 318q-13 24 15 24h103q16 0 23 -14l96 -202l96 202q7 14 23 14h103q28 0 15 -24l-158 -318z" />
    <glyph glyph-name="uni0446" unicode="&#x446;" horiz-adv-x="526" 
d="M67 0q-17 0 -17 16v668q0 16 17 16h103q16 0 16 -16v-552h128v552q0 16 16 16h103q17 0 17 -16v-552h33q17 0 17 -16v-200q0 -16 -17 -16h-103q-16 0 -16 16v84h-297z" />
    <glyph glyph-name="uni0447" unicode="&#x447;" horiz-adv-x="504" 
d="M226 414q-40 0 -40 40v226q0 20 -20 20h-96q-20 0 -20 -20v-254q0 -144 144 -144h124v-266q0 -16 16 -16h104q16 0 16 16v668q0 16 -16 16h-104q-16 0 -16 -16v-270h-92z" />
    <glyph glyph-name="uni0448" unicode="&#x448;" horiz-adv-x="764" 
d="M67 0q-17 0 -17 16v668q0 16 17 16h103q16 0 16 -16v-552h128v552q0 16 16 16h103q17 0 17 -16v-552h128v552q0 16 16 16h103q17 0 17 -16v-668q0 -16 -17 -16h-630z" />
    <glyph glyph-name="uni0449" unicode="&#x449;" horiz-adv-x="790" 
d="M67 0q-17 0 -17 16v668q0 16 17 16h103q16 0 16 -16v-552h128v552q0 16 16 16h103q17 0 17 -16v-552h128v552q0 16 16 16h103q17 0 17 -16v-552h33q17 0 17 -16v-200q0 -16 -17 -16h-103q-16 0 -16 16v84h-561z" />
    <glyph glyph-name="uni044A" unicode="&#x44a;" horiz-adv-x="608" 
d="M293 283v-155h95q40 0 40 40v75q0 40 -40 40h-95zM278 700q16 0 16 -16v-272h120q144 -2 144 -144v-125q0 -144 -144 -144h-240q-16 0 -16 16v553h-116q-16 0 -16 16v100q0 16 16 16h236z" />
    <glyph glyph-name="uni044B" unicode="&#x44b;" horiz-adv-x="738" 
d="M185 283v-155h95q40 0 40 40v75q0 40 -40 40h-95zM186 412h120q144 -2 144 -144v-125q0 -144 -144 -144h-240q-16 0 -16 16v669q0 16 16 16h104q16 0 16 -16v-272zM568 0q-16 0 -16 16v668q0 16 16 16h104q16 0 16 -16v-668q0 -16 -16 -16h-104z" />
    <glyph glyph-name="uni044C" unicode="&#x44c;" 
d="M185 283v-155h95q40 0 40 40v75q0 40 -40 40h-95zM186 412h120q144 -2 144 -144v-125q0 -144 -144 -144h-240q-16 0 -16 16v669q0 16 16 16h104q16 0 16 -16v-272z" />
    <glyph glyph-name="uni044D" unicode="&#x44d;" horiz-adv-x="501" 
d="M320 415v115q0 40 -40 40h-64q-40 0 -40 -40v-82q0 -16 -16 -16h-94q-16 0 -16 16v108q0 144 144 144h112q145 0 145 -144v-412q0 -144 -145 -144h-112q-144 0 -144 144v108q0 16 16 16h94q16 0 16 -16v-85q0 -40 40 -40h64q40 0 40 40v115h-103q-16 0 -16 17v99
q0 17 16 17h103z" />
    <glyph glyph-name="uni044E" unicode="&#x44e;" horiz-adv-x="759" 
d="M479 129q-40 0 -40 40v362q0 40 40 40h64q40 0 40 -40v-362q0 -40 -40 -40h-64zM309 144q0 -144 144 -144h112q144 0 144 144v412q0 144 -144 144h-112q-144 0 -144 -144v-142h-123v270q0 16 -16 16h-103q-17 0 -17 -16v-668q0 -16 17 -16h103q16 0 16 16v266h123v-138z
" />
    <glyph glyph-name="uni044F" unicode="&#x44f;" 
d="M50 556q0 144 144 144h240q16 0 16 -16v-668q0 -16 -16 -16h-98q-16 0 -16 16v195h-89l-48 -197q-3 -14 -17 -14h-98q-19 0 -14 18l52 215q-56 35 -56 122v201zM320 340v231h-100q-40 0 -40 -40v-151q0 -40 40 -40h100z" />
    <glyph glyph-name="uni0451" unicode="&#x451;" horiz-adv-x="499" 
d="M449 584q0 -17 -16 -17h-247v-152h188q16 0 16 -17v-99q0 -17 -16 -17h-188v-150h247q16 0 16 -16v-100q0 -16 -16 -16h-368q-15 0 -15 16v668q0 16 15 16h368q16 0 16 -16v-100zM82 777q0 -20 20 -20h91q20 0 20 20v92q0 20 -20 20h-91q-20 0 -20 -20v-92zM282 777
q0 -20 20 -20h91q20 0 20 20v92q0 20 -20 20h-91q-20 0 -20 -20v-92z" />
    </font>
</defs>
</svg>
