<svg width="23" height="23" viewBox="0 0 23 23" fill="#FFFFFF" xmlns="http://www.w3.org/2000/svg">
<path d="M22.4346 7.94798C20.858 3.08831 16.3506 0 11.5046 0C10.3268 0 9.13037 0.180847 7.94787 0.565726C1.91018 2.52722 -1.39617 9.01452 0.565383 15.052C2.14205 19.9117 6.64944 23 11.4954 23C12.6732 23 13.8696 22.8192 15.0521 22.4343C21.0898 20.4728 24.3962 13.9855 22.4346 7.94798ZM18.9799 16.93L16.5592 17.2268L14.5328 14.4028L15.6642 10.9157L18.9613 9.89093L20.7652 11.5788C20.7559 13.0024 20.4221 14.4121 19.7589 15.7151C19.541 16.1464 19.2627 16.5405 18.9799 16.93ZM18.9799 6.01431L18.4976 8.47661L15.2191 9.49677L12.242 7.34052V3.91835L14.44 2.70343C16.2578 3.30625 17.8437 4.46552 18.9799 6.01431ZM8.5739 2.70806L10.758 3.91835V7.34052L7.78093 9.49677L4.50704 8.47661L4.03868 6.04214C5.16553 4.49335 6.72364 3.3248 8.5739 2.70806ZM6.44541 17.2268L3.98303 16.9254C3.31527 15.9933 2.25334 14.1617 2.23015 11.5788L4.03868 9.89093L7.33576 10.9204L8.46261 14.3657L6.44541 17.2268ZM8.68056 20.3337L7.64181 18.1032L9.66365 15.2421H13.3085L15.3628 18.1032L14.3241 20.3337C14.0366 20.4171 11.653 21.2796 8.68056 20.3337Z" fill="white"/>
</svg>
