<svg width="20" height="21" viewBox="0 0 20 21" fill="none" xmlns="http://www.w3.org/2000/svg">
<path d="M13.07 0.0478516H6.93C1.32667 0.0478516 0 1.37452 0 6.97785V13.1179C0 18.7212 1.32667 20.0479 6.93 20.0479H13.07C18.6733 20.0479 20 18.7212 20 13.1179V6.97785C20 1.37452 18.6592 0.0478516 13.07 0.0478516ZM16.1467 14.317H14.6933C14.1433 14.317 13.9733 13.8795 12.985 12.8779C12.1242 12.0445 11.7433 11.932 11.5317 11.932C11.235 11.932 11.15 12.017 11.15 12.4262V13.7387C11.15 14.092 11.0375 14.3037 10.1058 14.3037C8.5675 14.3037 6.85917 13.372 5.66 11.6354C3.85333 9.09535 3.35833 7.18952 3.35833 6.79452C3.35833 6.58285 3.44333 6.38535 3.8525 6.38535H5.30583C5.6725 6.38535 5.81417 6.55452 5.95583 6.94952C6.675 9.02452 7.875 10.8454 8.36917 10.8454C8.5525 10.8454 8.6375 10.7604 8.6375 10.2954V8.14868C8.58083 7.16035 8.05833 7.07618 8.05833 6.72368C8.05833 6.55368 8.2 6.38452 8.425 6.38452H10.7117C11.0225 6.38452 11.135 6.55368 11.135 6.92035V9.81452C11.135 10.1245 11.2767 10.2379 11.3608 10.2379C11.5442 10.2379 11.7 10.1245 12.0383 9.78618C13.0833 8.61452 13.8308 6.80785 13.8308 6.80785C13.93 6.59619 14.0992 6.39868 14.4667 6.39868H15.92C16.3575 6.39868 16.4567 6.62368 16.3575 6.93452C16.1742 7.78202 14.3958 10.2937 14.3958 10.2937C14.2408 10.5479 14.1842 10.6604 14.3958 10.9437C14.5508 11.1554 15.0592 11.5929 15.3983 11.9879C16.0192 12.6937 16.4983 13.2862 16.6258 13.6962C16.7675 14.1045 16.555 14.3162 16.1458 14.3162L16.1467 14.317Z" fill="white"/>
</svg>
