<svg width="20" height="21" viewBox="0 0 20 21" fill="none" xmlns="http://www.w3.org/2000/svg">
<path d="M14.5817 12.0422C14.333 11.9174 13.1097 11.3163 12.882 11.2325C12.6534 11.1496 12.4876 11.1086 12.321 11.3581C12.156 11.6068 11.6788 12.167 11.5339 12.3328C11.3891 12.4994 11.2434 12.5195 10.9947 12.3956C10.746 12.27 9.94388 12.0079 8.99353 11.1605C8.25419 10.5007 7.75431 9.68602 7.60946 9.4365C7.46461 9.18782 7.59439 9.05301 7.71831 8.92909C7.83051 8.81773 7.96783 8.63855 8.09175 8.49369C8.21651 8.348 8.25754 8.24417 8.34127 8.07755C8.42416 7.91176 8.38313 7.76691 8.32034 7.64215C8.25754 7.51739 7.76018 6.29241 7.55336 5.79421C7.35073 5.30941 7.14559 5.37556 6.9932 5.36718C6.83419 5.36085 6.67507 5.35806 6.51594 5.35881C6.35015 5.35881 6.08053 5.42077 5.85279 5.67029C5.62504 5.91897 4.98199 6.52099 4.98199 7.74598C4.98199 8.97012 5.87372 10.1532 5.99764 10.3199C6.1224 10.4857 7.75264 12.9992 10.2487 14.0769C10.8423 14.3331 11.3053 14.4863 11.6671 14.6002C12.2632 14.7903 12.8058 14.7635 13.2337 14.699C13.7118 14.6278 14.7057 14.097 14.9133 13.5159C15.121 12.9348 15.121 12.4366 15.0582 12.3328C14.9962 12.2289 14.8312 12.167 14.5817 12.0422ZM10.0418 18.2408H10.0385C8.55626 18.2409 7.10128 17.8424 5.82599 17.087L5.52372 16.9078L2.39135 17.73L3.22699 14.6755L3.03022 14.3624C2.20165 13.043 1.76332 11.5161 1.76588 9.95815C1.76672 5.39481 5.48018 1.68219 10.0452 1.68219C12.2557 1.68219 14.3339 2.54462 15.8963 4.10871C16.6672 4.8762 17.2782 5.78896 17.694 6.79416C18.1098 7.79936 18.3221 8.87705 18.3186 9.96484C18.3161 14.5282 14.6035 18.2408 10.0418 18.2408ZM17.0861 2.92057C16.1636 1.99193 15.0659 1.25561 13.8567 0.754282C12.6475 0.252955 11.3508 -0.00341308 10.0418 3.43109e-05C4.55328 3.43109e-05 0.0862428 4.46708 0.0837309 9.95731C0.0837309 11.7123 0.541739 13.4254 1.41338 14.9351L0 20.0954L5.27923 18.7105C6.73916 19.5059 8.37513 19.9227 10.0377 19.923H10.0418C15.5296 19.923 19.9974 15.4559 20 9.96484C20.004 8.65636 19.7486 7.36006 19.2484 6.15093C18.7483 4.9418 18.0133 3.84384 17.0861 2.92057Z" fill="white"/>
</svg>
